# This file uses centimeters as units for non-parametric coordinates.

mtllib ufo.mtl
g default
v 3.475144 0.460087 1.076854
v 1.716499 0.636794 0.356035
v -0.149079 -0.448031 0.327175
v -1.769880 0.460087 1.076855
v -2.388970 1.929453 2.289861
v -1.769879 3.398818 3.502866
v -0.149078 4.100938 4.502081
v 1.854342 4.306936 4.252546
v 3.475143 3.398818 3.502866
v 4.094234 1.929453 2.289860
v 5.578234 -0.437841 -0.235578
v 2.519808 -0.989387 -1.557592
v -0.534782 -1.490774 -0.389141
v -3.872971 -0.437839 -0.235576
v -4.988532 2.209866 1.950185
v -3.872970 4.857571 4.135946
v -0.952387 6.493942 5.486820
v 2.657651 6.493942 5.486820
v 5.578232 4.857570 4.135945
v 6.693796 2.209866 1.950184
v 6.745360 -0.686561 -1.266263
v 2.965610 -1.642258 -2.921915
v -0.980585 -2.143645 -1.753464
v -5.040096 -0.686560 -1.266262
v -6.431181 2.615074 1.459339
v -5.040096 5.916709 4.184939
v -1.398190 7.957230 5.869451
v 3.103454 7.957230 5.869451
v 6.745359 5.916709 4.184938
v 8.136444 2.615074 1.459338
v 6.745360 -0.442813 -1.561525
v 2.965610 -1.192511 -3.466713
v -0.980585 -1.693898 -2.298262
v -5.040096 -0.236813 -1.811060
v -6.431181 3.064822 0.914541
v -5.040096 6.366457 3.640141
v -1.398190 8.406977 5.324653
v 3.103454 8.406977 5.324653
v 6.745359 6.694996 3.242165
v 8.136444 3.064821 0.914540
v 5.578234 0.616325 -1.512533
v 2.519808 0.270778 -3.084082
v -0.534782 -0.230610 -1.915631
v -3.872971 0.822325 -1.762067
v -4.988532 3.470030 0.423694
v -3.872970 6.117735 2.609456
v -0.952387 7.754106 3.960330
v 2.657651 7.754106 3.960330
v 5.578232 6.117735 2.609455
v 6.693796 3.470030 0.423694
v 3.475144 2.281077 -1.128988
v 1.854342 1.701499 -2.276642
v -0.149079 1.372959 -1.878667
v -1.769880 2.281077 -1.128988
v -2.388970 3.750443 0.084018
v -1.769879 5.219808 1.297024
v -0.149078 6.127927 2.046704
v 1.854342 6.127927 2.046703
v 3.475143 5.219808 1.297024
v 4.094234 3.750443 0.084018
v 0.852632 1.829374 2.411089
v 2.621936 3.624106 -1.782142
v 1.528446 3.011435 -2.287920
v 0.852632 5.165196 -1.629732
v 0.176818 3.011435 -2.287920
v -0.916672 3.624106 -1.782142
v -1.334347 4.615428 -0.963775
v -0.916671 5.606750 -0.145408
v 0.176818 6.219421 0.360370
v 1.528446 6.219421 0.360370
v 2.621936 5.606750 -0.145408
v 3.039611 4.615428 -0.963775
vt 0.357214 0.817759
vt 0.296632 0.830213
vt 0.324305 0.925652
vt 0.429661 0.876744
vt 0.232367 0.863217
vt 0.219080 0.911863
vt 0.176534 0.817759
vt 0.104086 0.876744
vt 0.155207 0.744207
vt 0.065658 0.744207
vt 0.176534 0.670654
vt 0.104086 0.611669
vt 0.232367 0.625196
vt 0.204695 0.529757
vt 0.301381 0.625196
vt 0.329053 0.529757
vt 0.357214 0.670654
vt 0.429661 0.611669
vt 0.378540 0.744207
vt 0.468090 0.744207
vt 0.774296 0.615519
vt 0.915830 0.540364
vt 0.626530 0.600530
vt 0.483802 0.532630
vt 0.422432 0.360713
vt 0.474521 0.181062
vt 0.610893 0.070032
vt 0.779458 0.070032
vt 0.915830 0.181062
vt 0.967919 0.360713
vt 0.774296 0.615519
vt 0.915830 0.540364
vt 0.626530 0.600530
vt 0.483802 0.532630
vt 0.422432 0.360713
vt 0.474521 0.181062
vt 0.610893 0.070032
vt 0.779458 0.070032
vt 0.915830 0.181062
vt 0.967919 0.360713
vt 0.757603 0.557946
vt 0.872126 0.504782
vt 0.643224 0.542957
vt 0.527506 0.497048
vt 0.476452 0.360713
vt 0.518224 0.216644
vt 0.627586 0.127605
vt 0.762765 0.127605
vt 0.872126 0.216644
vt 0.913899 0.360713
vt 0.741623 0.504633
vt 0.798553 0.444881
vt 0.653368 0.504633
vt 0.588704 0.449521
vt 0.564300 0.360713
vt 0.587931 0.271905
vt 0.656462 0.218340
vt 0.740850 0.223754
vt 0.798553 0.276546
vt 0.822957 0.360713
vt 0.339662 0.978617
vt 0.764920 0.417498
vt 0.721816 0.452592
vt 0.695176 0.360713
vt 0.668535 0.452592
vt 0.625431 0.417498
vt 0.608966 0.360713
vt 0.625431 0.303929
vt 0.668535 0.268834
vt 0.721816 0.268834
vt 0.764920 0.303929
vt 0.781385 0.360713
vt 0.469866 0.909478
vt 0.203723 0.964828
vt 0.063881 0.909478
vt 0.015961 0.744207
vt 0.063881 0.578935
vt 0.189338 0.476792
vt 0.344410 0.476792
vt 0.469866 0.578935
vt 0.517786 0.744207
vt 0.266874 0.744207
vn 0.081933 -0.679259 0.729311
vn 0.031295 -0.707631 0.705889
vn 0.079191 -0.803321 0.590257
vn 0.207326 -0.731529 0.649524
vn 0.031295 -0.707631 0.705889
vn -0.031295 -0.707631 0.705889
vn -0.079191 -0.803321 0.590257
vn 0.079191 -0.803321 0.590257
vn -0.031295 -0.707631 0.705889
vn -0.081933 -0.679259 0.729311
vn -0.207326 -0.731529 0.649524
vn -0.079191 -0.803321 0.590257
vn -0.081933 -0.679259 0.729311
vn -0.101274 -0.633353 0.767208
vn -0.256269 -0.615367 0.745420
vn -0.207326 -0.731529 0.649524
vn -0.101274 -0.633353 0.767208
vn -0.081933 -0.587447 0.805104
vn -0.207326 -0.499204 0.841315
vn -0.256269 -0.615367 0.745420
vn -0.081933 -0.587447 0.805104
vn -0.031295 -0.559076 0.828526
vn -0.079191 -0.427412 0.900582
vn -0.207326 -0.499204 0.841315
vn -0.031295 -0.559076 0.828526
vn 0.031295 -0.559076 0.828526
vn 0.079191 -0.427412 0.900582
vn -0.079191 -0.427412 0.900582
vn 0.031295 -0.559076 0.828526
vn 0.081933 -0.587447 0.805104
vn 0.207326 -0.499204 0.841315
vn 0.079191 -0.427412 0.900582
vn 0.081933 -0.587447 0.805104
vn 0.101274 -0.633353 0.767208
vn 0.256269 -0.615367 0.745420
vn 0.207326 -0.499204 0.841315
vn 0.101274 -0.633353 0.767208
vn 0.081933 -0.679259 0.729311
vn 0.207326 -0.731529 0.649524
vn 0.256269 -0.615367 0.745420
vn 0.207326 -0.731529 0.649524
vn 0.079191 -0.803321 0.590257
vn 0.210015 -0.965459 0.154213
vn 0.549826 -0.775067 0.311388
vn 0.079191 -0.803321 0.590257
vn -0.079191 -0.803321 0.590257
vn -0.210015 -0.965459 0.154213
vn 0.210015 -0.965459 0.154213
vn -0.079191 -0.803321 0.590257
vn -0.207326 -0.731529 0.649524
vn -0.549826 -0.775067 0.311388
vn -0.210015 -0.965459 0.154213
vn -0.207326 -0.731529 0.649524
vn -0.256269 -0.615367 0.745420
vn -0.679623 -0.467005 0.565703
vn -0.549826 -0.775067 0.311388
vn -0.256269 -0.615367 0.745420
vn -0.207326 -0.499204 0.841315
vn -0.549826 -0.158943 0.820017
vn -0.679623 -0.467005 0.565703
vn -0.207326 -0.499204 0.841315
vn -0.079191 -0.427412 0.900582
vn -0.210015 0.031450 0.977192
vn -0.549826 -0.158943 0.820017
vn -0.079191 -0.427412 0.900582
vn 0.079191 -0.427412 0.900582
vn 0.210015 0.031450 0.977192
vn -0.210015 0.031450 0.977192
vn 0.079191 -0.427412 0.900582
vn 0.207326 -0.499204 0.841315
vn 0.549826 -0.158943 0.820017
vn 0.210015 0.031450 0.977192
vn 0.207326 -0.499204 0.841315
vn 0.256269 -0.615367 0.745420
vn 0.679622 -0.467005 0.565703
vn 0.549826 -0.158943 0.820017
vn 0.256269 -0.615367 0.745420
vn 0.207326 -0.731529 0.649524
vn 0.549826 -0.775067 0.311388
vn 0.679622 -0.467005 0.565703
vn 0.549826 -0.775067 0.311388
vn 0.210015 -0.965459 0.154213
vn 0.210015 -0.031450 -0.977192
vn 0.549826 0.158943 -0.820017
vn 0.210015 -0.965459 0.154213
vn -0.210015 -0.965459 0.154213
vn -0.210015 -0.031450 -0.977192
vn 0.210015 -0.031450 -0.977192
vn -0.210015 -0.965459 0.154213
vn -0.549826 -0.775067 0.311388
vn -0.549826 0.158943 -0.820017
vn -0.210015 -0.031450 -0.977192
vn -0.549826 -0.775067 0.311388
vn -0.679623 -0.467005 0.565703
vn -0.679623 0.467005 -0.565703
vn -0.549826 0.158943 -0.820017
vn -0.679623 -0.467005 0.565703
vn -0.549826 -0.158943 0.820017
vn -0.549826 0.775067 -0.311388
vn -0.679623 0.467005 -0.565703
vn -0.549826 -0.158943 0.820017
vn -0.210015 0.031450 0.977192
vn -0.210015 0.965459 -0.154213
vn -0.549826 0.775067 -0.311388
vn -0.210015 0.031450 0.977192
vn 0.210015 0.031450 0.977192
vn 0.210015 0.965459 -0.154213
vn -0.210015 0.965459 -0.154213
vn 0.210015 0.031450 0.977192
vn 0.549826 -0.158943 0.820017
vn 0.549826 0.775067 -0.311388
vn 0.210015 0.965459 -0.154213
vn 0.549826 -0.158943 0.820017
vn 0.679622 -0.467005 0.565703
vn 0.679622 0.467005 -0.565703
vn 0.549826 0.775067 -0.311388
vn 0.679622 -0.467005 0.565703
vn 0.549826 -0.775067 0.311388
vn 0.549826 0.158943 -0.820017
vn 0.679622 0.467005 -0.565703
vn 0.549826 0.158943 -0.820017
vn 0.210015 -0.031450 -0.977192
vn 0.079191 0.427412 -0.900582
vn 0.207326 0.499204 -0.841315
vn 0.210015 -0.031450 -0.977192
vn -0.210015 -0.031450 -0.977192
vn -0.079191 0.427412 -0.900582
vn 0.079191 0.427412 -0.900582
vn -0.210015 -0.031450 -0.977192
vn -0.549826 0.158943 -0.820017
vn -0.207326 0.499204 -0.841315
vn -0.079191 0.427412 -0.900582
vn -0.549826 0.158943 -0.820017
vn -0.679623 0.467005 -0.565703
vn -0.256269 0.615367 -0.745420
vn -0.207326 0.499204 -0.841315
vn -0.679623 0.467005 -0.565703
vn -0.549826 0.775067 -0.311388
vn -0.207326 0.731529 -0.649524
vn -0.256269 0.615367 -0.745420
vn -0.549826 0.775067 -0.311388
vn -0.210015 0.965459 -0.154213
vn -0.079191 0.803322 -0.590257
vn -0.207326 0.731529 -0.649524
vn -0.210015 0.965459 -0.154213
vn 0.210015 0.965459 -0.154213
vn 0.079191 0.803321 -0.590257
vn -0.079191 0.803322 -0.590257
vn 0.210015 0.965459 -0.154213
vn 0.549826 0.775067 -0.311388
vn 0.207326 0.731529 -0.649524
vn 0.079191 0.803321 -0.590257
vn 0.549826 0.775067 -0.311388
vn 0.679622 0.467005 -0.565703
vn 0.256269 0.615367 -0.745419
vn 0.207326 0.731529 -0.649524
vn 0.679622 0.467005 -0.565703
vn 0.549826 0.158943 -0.820017
vn 0.207326 0.499204 -0.841315
vn 0.256269 0.615367 -0.745419
vn 0.207326 0.499204 -0.841315
vn 0.079191 0.427412 -0.900582
vn 0.104248 0.351881 -0.930222
vn 0.272925 0.446389 -0.852202
vn 0.079191 0.427412 -0.900582
vn -0.079191 0.427412 -0.900582
vn -0.104248 0.351881 -0.930222
vn 0.104248 0.351881 -0.930222
vn -0.079191 0.427412 -0.900582
vn -0.207326 0.499204 -0.841315
vn -0.272925 0.446389 -0.852202
vn -0.104248 0.351881 -0.930222
vn -0.207326 0.499204 -0.841315
vn -0.256269 0.615367 -0.745420
vn -0.337354 0.599306 -0.725965
vn -0.272925 0.446389 -0.852202
vn -0.256269 0.615367 -0.745420
vn -0.207326 0.731529 -0.649524
vn -0.272925 0.752223 -0.599727
vn -0.337354 0.599306 -0.725965
vn -0.207326 0.731529 -0.649524
vn -0.079191 0.803322 -0.590257
vn -0.104248 0.846731 -0.521707
vn -0.272925 0.752223 -0.599727
vn -0.079191 0.803322 -0.590257
vn 0.079191 0.803321 -0.590257
vn 0.104248 0.846731 -0.521707
vn -0.104248 0.846731 -0.521707
vn 0.079191 0.803321 -0.590257
vn 0.207326 0.731529 -0.649524
vn 0.272925 0.752223 -0.599727
vn 0.104248 0.846731 -0.521707
vn 0.207326 0.731529 -0.649524
vn 0.256269 0.615367 -0.745419
vn 0.337354 0.599306 -0.725965
vn 0.272925 0.752223 -0.599727
vn 0.256269 0.615367 -0.745419
vn 0.207326 0.499204 -0.841315
vn 0.272925 0.446389 -0.852202
vn 0.337354 0.599306 -0.725965
vn 0.031295 -0.707631 0.705889
vn 0.081933 -0.679259 0.729311
vn 0.000000 -0.636626 0.771172
vn -0.031295 -0.707631 0.705889
vn 0.031295 -0.707631 0.705889
vn 0.000000 -0.636626 0.771172
vn -0.081933 -0.679259 0.729311
vn -0.031295 -0.707631 0.705889
vn 0.000000 -0.636626 0.771172
vn -0.101274 -0.633353 0.767208
vn -0.081933 -0.679259 0.729311
vn 0.000000 -0.636626 0.771172
vn -0.081933 -0.587447 0.805104
vn -0.101274 -0.633353 0.767208
vn 0.000000 -0.636626 0.771172
vn -0.031295 -0.559076 0.828526
vn -0.081933 -0.587447 0.805104
vn 0.000000 -0.636626 0.771172
vn 0.031295 -0.559076 0.828526
vn -0.031295 -0.559076 0.828526
vn 0.000000 -0.636626 0.771172
vn 0.081933 -0.587447 0.805104
vn 0.031295 -0.559076 0.828526
vn 0.000000 -0.636626 0.771172
vn 0.101274 -0.633353 0.767208
vn 0.081933 -0.587447 0.805104
vn 0.000000 -0.636626 0.771172
vn 0.081933 -0.679259 0.729311
vn 0.101274 -0.633353 0.767208
vn 0.000000 -0.636626 0.771172
vn 0.553588 0.220665 -0.803024
vn 0.184501 0.072801 -0.980132
vn -0.000000 0.636626 -0.771172
vn -0.247394 0.019963 -0.968709
vn -0.544566 0.165692 -0.822189
vn -0.673120 0.470806 -0.570307
vn -0.544566 0.775921 -0.318426
vn -0.208006 0.964492 -0.162755
vn 0.208006 0.964492 -0.162755
vn 0.544566 0.775921 -0.318426
vn 0.673120 0.470806 -0.570307
vn 0.706837 0.141026 -0.693176
vn 0.218084 -0.066571 -0.973657
vn -0.376382 -0.130395 -0.917243
vn -0.639088 0.032282 -0.768456
vn -0.789956 0.390356 -0.472855
vn -0.639088 0.748430 -0.177253
vn -0.244110 0.969732 0.005438
vn 0.244110 0.969732 0.005438
vn 0.639088 0.748430 -0.177253
vn 0.789956 0.390356 -0.472855
s off
g pSphere1
usemtl lambert2SG
f 1/1/1 2/2/2 12/3/3 11/4/4
f 2/2/5 3/5/6 13/6/7 12/3/8
f 3/5/9 4/7/10 14/8/11 13/6/12
f 4/7/13 5/9/14 15/10/15 14/8/16
f 5/9/17 6/11/18 16/12/19 15/10/20
f 6/11/21 7/13/22 17/14/23 16/12/24
f 7/13/25 8/15/26 18/16/27 17/14/28
f 8/15/29 9/17/30 19/18/31 18/16/32
f 9/17/33 10/19/34 20/20/35 19/18/36
f 10/19/37 1/1/38 11/4/39 20/20/40
f 11/4/41 12/3/42 22/61/43 21/73/44
f 12/3/45 13/6/46 23/74/47 22/61/48
f 13/6/49 14/8/50 24/75/51 23/74/52
f 14/8/53 15/10/54 25/76/55 24/75/56
f 15/10/57 16/12/58 26/77/59 25/76/60
f 16/12/61 17/14/62 27/78/63 26/77/64
f 17/14/65 18/16/66 28/79/67 27/78/68
f 18/16/69 19/18/70 29/80/71 28/79/72
f 19/18/73 20/20/74 30/81/75 29/80/76
f 20/20/77 11/4/78 21/73/79 30/81/80
f 21/22/81 22/21/82 32/31/83 31/32/84
f 22/21/85 23/23/86 33/33/87 32/31/88
f 23/23/89 24/24/90 34/34/91 33/33/92
f 24/24/93 25/25/94 35/35/95 34/34/96
f 25/25/97 26/26/98 36/36/99 35/35/100
f 26/26/101 27/27/102 37/37/103 36/36/104
f 27/27/105 28/28/106 38/38/107 37/37/108
f 28/28/109 29/29/110 39/39/111 38/38/112
f 29/29/113 30/30/114 40/40/115 39/39/116
f 30/30/117 21/22/118 31/32/119 40/40/120
f 31/32/121 32/31/122 42/41/123 41/42/124
f 32/31/125 33/33/126 43/43/127 42/41/128
f 33/33/129 34/34/130 44/44/131 43/43/132
f 34/34/133 35/35/134 45/45/135 44/44/136
f 35/35/137 36/36/138 46/46/139 45/45/140
f 36/36/141 37/37/142 47/47/143 46/46/144
f 37/37/145 38/38/146 48/48/147 47/47/148
f 38/38/149 39/39/150 49/49/151 48/48/152
f 39/39/153 40/40/154 50/50/155 49/49/156
f 40/40/157 31/32/158 41/42/159 50/50/160
f 41/42/161 42/41/162 52/51/163 51/52/164
f 42/41/165 43/43/166 53/53/167 52/51/168
f 43/43/169 44/44/170 54/54/171 53/53/172
f 44/44/173 45/45/174 55/55/175 54/54/176
f 45/45/177 46/46/178 56/56/179 55/55/180
f 46/46/181 47/47/182 57/57/183 56/56/184
f 47/47/185 48/48/186 58/58/187 57/57/188
f 48/48/189 49/49/190 59/59/191 58/58/192
f 49/49/193 50/50/194 60/60/195 59/59/196
f 50/50/197 41/42/198 51/52/199 60/60/200
f 2/2/201 1/1/202 61/82/203
f 3/5/204 2/2/205 61/82/206
f 4/7/207 3/5/208 61/82/209
f 5/9/210 4/7/211 61/82/212
f 6/11/213 5/9/214 61/82/215
f 7/13/216 6/11/217 61/82/218
f 8/15/219 7/13/220 61/82/221
f 9/17/222 8/15/223 61/82/224
f 10/19/225 9/17/226 61/82/227
f 1/1/228 10/19/229 61/82/230
s 1
f 62/62/231 63/63/232 64/64/233
f 63/63/232 65/65/234 64/64/233
f 65/65/234 66/66/235 64/64/233
f 66/66/235 67/67/236 64/64/233
f 67/67/236 68/68/237 64/64/233
f 68/68/237 69/69/238 64/64/233
f 69/69/238 70/70/239 64/64/233
f 70/70/239 71/71/240 64/64/233
f 71/71/240 72/72/241 64/64/233
f 72/72/241 62/62/231 64/64/233
f 51/52/242 52/51/243 63/63/232 62/62/231
f 52/51/243 53/53/244 65/65/234 63/63/232
f 53/53/244 54/54/245 66/66/235 65/65/234
f 54/54/245 55/55/246 67/67/236 66/66/235
f 55/55/246 56/56/247 68/68/237 67/67/236
f 56/56/247 57/57/248 69/69/238 68/68/237
f 57/57/248 58/58/249 70/70/239 69/69/238
f 58/58/249 59/59/250 71/71/240 70/70/239
f 59/59/250 60/60/251 72/72/241 71/71/240
f 60/60/251 51/52/242 62/62/231 72/72/241
